<svg xmlns="http://www.w3.org/2000/svg" viewBox="0 0 800 500" width="800" height="500">
  <defs>
    <linearGradient id="pbg" x1="0%" y1="0%" x2="100%" y2="100%">
      <stop offset="0%" style="stop-color:#7c2d12"/>
      <stop offset="100%" style="stop-color:#ea580c"/>
    </linearGradient>
    <linearGradient id="pac" x1="0%" y1="0%" x2="100%" y2="0%">
      <stop offset="0%" style="stop-color:#10b981"/>
      <stop offset="100%" style="stop-color:#34d399"/>
    </linearGradient>
  </defs>
  <rect width="800" height="500" fill="url(#pbg)" rx="16"/>
  <rect x="0" y="0" width="800" height="5" fill="url(#pac)"/>
  <g transform="translate(550, 80)" fill="rgba(255,255,255,0.05)">
    <circle cx="80" cy="80" r="80" stroke="rgba(255,255,255,0.06)" stroke-width="6" fill="none"/>
    <circle cx="80" cy="80" r="55" stroke="rgba(255,255,255,0.04)" stroke-width="3" fill="none"/>
    <text x="40" y="95" font-family="Arial, sans-serif" font-size="36" font-weight="900" fill="rgba(255,255,255,0.06)">PF</text>
  </g>
  <g transform="translate(590, 250)" fill="rgba(255,255,255,0.05)">
    <rect x="0" y="0" width="120" height="160" rx="8"/>
    <rect x="15" y="20" width="90" height="6" rx="3" fill="rgba(255,255,255,0.04)"/>
    <rect x="15" y="35" width="70" height="6" rx="3" fill="rgba(255,255,255,0.04)"/>
    <rect x="15" y="50" width="80" height="6" rx="3" fill="rgba(255,255,255,0.04)"/>
    <rect x="15" y="75" width="90" height="6" rx="3" fill="rgba(255,255,255,0.04)"/>
    <rect x="15" y="90" width="60" height="6" rx="3" fill="rgba(255,255,255,0.04)"/>
    <rect x="15" y="120" width="90" height="25" rx="4" fill="rgba(255,255,255,0.03)"/>
  </g>
  <rect x="30" y="20" width="180" height="36" fill="rgba(255,255,255,0.1)" rx="8"/>
  <text x="46" y="44" font-family="Arial, sans-serif" font-size="13" font-weight="800" fill="#fdba74">EXTEND</text>
  <text x="108" y="44" font-family="Arial, sans-serif" font-size="13" font-weight="800" fill="#34d399"> KART</text>
  <rect x="30" y="76" width="260" height="32" fill="rgba(255,255,255,0.12)" rx="16" stroke="rgba(255,255,255,0.15)" stroke-width="1"/>
  <text x="52" y="97" font-family="Arial, sans-serif" font-size="12" font-weight="700" fill="white" letter-spacing="2">EPFO ONLINE WITHDRAWAL</text>
  <text x="30" y="168" font-family="Arial, sans-serif" font-size="52" font-weight="900" fill="white">PF</text>
  <text x="30" y="228" font-family="Arial, sans-serif" font-size="52" font-weight="900" fill="white">WITHDRAWAL</text>
  <text x="30" y="265" font-family="Arial, sans-serif" font-size="20" font-weight="400" fill="rgba(255,255,255,0.6)">EPF | PPF | Pension | Advance Claims</text>
  <rect x="30" y="290" width="180" height="65" fill="rgba(255,255,255,0.1)" rx="12"/>
  <text x="50" y="316" font-family="Arial, sans-serif" font-size="10" font-weight="600" fill="rgba(255,255,255,0.5)" letter-spacing="1.5">SERVICE CHARGE</text>
  <text x="50" y="342" font-family="Arial, sans-serif" font-size="28" font-weight="900" fill="#34d399">Rs.500</text>
  <rect x="230" y="290" width="250" height="65" fill="rgba(255,255,255,0.06)" rx="12"/>
  <text x="250" y="316" font-family="Arial, sans-serif" font-size="10" font-weight="600" fill="rgba(255,255,255,0.5)" letter-spacing="1.5">WE HANDLE</text>
  <text x="250" y="335" font-family="Arial, sans-serif" font-size="12" fill="rgba(255,255,255,0.8)">* Full &amp; Partial Withdrawal</text>
  <text x="250" y="350" font-family="Arial, sans-serif" font-size="12" fill="rgba(255,255,255,0.8)">* UAN Activation &amp; KYC</text>
  <rect x="0" y="400" width="800" height="100" fill="rgba(0,0,0,0.3)"/>
  <rect x="0" y="400" width="800" height="3" fill="url(#pac)"/>
  <text x="50" y="435" font-family="Arial, sans-serif" font-size="11" font-weight="600" fill="rgba(255,255,255,0.5)" letter-spacing="1">CLAIM YOUR PF</text>
  <text x="50" y="460" font-family="Arial, sans-serif" font-size="14" font-weight="700" fill="white">Call: 9951119995 | Deshaipet Road, Warangal</text>
  <rect x="580" y="420" width="190" height="55" fill="rgba(234,88,12,0.3)" rx="10" stroke="#fdba74" stroke-width="1"/>
  <text x="608" y="445" font-family="Arial, sans-serif" font-size="11" font-weight="700" fill="#fdba74">Quick Processing</text>
  <text x="610" y="463" font-family="Arial, sans-serif" font-size="10" fill="rgba(255,255,255,0.6)">7-15 Working Days</text>
</svg>
